<svg width="16" height="16" viewBox="0 0 16 16" fill="none" xmlns="http://www.w3.org/2000/svg">
<g clip-path="url(#clip0_10565_26718)">
<path d="M8.00008 1.33331L8.07808 1.33798C8.22689 1.35553 8.36545 1.4227 8.47141 1.52865C8.57736 1.63461 8.64453 1.77317 8.66208 1.92198L8.66675 1.99998V4.66665L8.67008 4.76665C8.69394 5.08409 8.83059 5.38253 9.05532 5.608C9.28006 5.83347 9.57805 5.97109 9.89542 5.99598L10.0001 5.99998H12.6667L12.7447 6.00465C12.8936 6.0222 13.0321 6.08937 13.1381 6.19532C13.244 6.30128 13.3112 6.43984 13.3287 6.58865L13.3334 6.66665V12.6666C13.3334 13.1768 13.1385 13.6677 12.7886 14.0388C12.4386 14.41 11.96 14.6334 11.4507 14.6633L11.3334 14.6666H4.66675C4.15661 14.6667 3.66574 14.4718 3.29457 14.1218C2.92341 13.7718 2.70001 13.2932 2.67008 12.784L2.66675 12.6666V3.33331C2.66672 2.82317 2.86163 2.3323 3.2116 1.96114C3.56158 1.58998 4.04015 1.36657 4.54941 1.33665L4.66675 1.33331H8.00008Z" fill="#110C22"/>
<path d="M12.6673 4.66666H10.0007L10 1.99933L12.6673 4.66666Z" fill="#110C22"/>
</g>
<defs>
<clipPath id="clip0_10565_26718">
<rect width="16" height="16" fill="white"/>
</clipPath>
</defs>
</svg>
