<svg width="20" height="20" viewBox="0 0 20 20" fill="none" xmlns="http://www.w3.org/2000/svg">
<g clip-path="url(#clip0_9375_1578)">
<path d="M4.16667 15.8333V10H2.5L10 2.5L17.5 10H15.8333V15.8333C15.8333 16.2754 15.6577 16.6993 15.3452 17.0118C15.0326 17.3244 14.6087 17.5 14.1667 17.5H13.0833C12.531 17.5 12.0833 17.0523 12.0833 16.5V13.6667C12.0833 12.5621 11.1879 11.6667 10.0833 11.6667H9.91667C8.8121 11.6667 7.91667 12.5621 7.91667 13.6667V16.5C7.91667 17.0523 7.46895 17.5 6.91667 17.5H5.83333C5.39131 17.5 4.96738 17.3244 4.65482 17.0118C4.34226 16.6993 4.16667 16.2754 4.16667 15.8333Z" stroke="#9F9FAB" stroke-width="1.5" stroke-linecap="round" stroke-linejoin="round"/>
</g>
<defs>
<clipPath id="clip0_9375_1578">
<rect width="20" height="20" fill="white"/>
</clipPath>
</defs>
</svg>
