<svg width="12" height="12" viewBox="0 0 12 12" fill="none" xmlns="http://www.w3.org/2000/svg">
<g clip-path="url(#clip0_10243_60237)">
<path d="M0.893438 11.0607C0.702188 10.8695 0.702188 10.562 0.893438 10.3707L4.25344 7.01074L4.94344 7.70074L1.58344 11.0607C1.39219 11.252 1.08469 11.252 0.893438 11.0607Z" fill="#DDDDE5"/>
<path d="M7.51342 7.19031L9.23963 5.4641L8.62609 3.18756L6.45277 2.67725L4.72656 4.40345L5.25109 6.56256L7.51342 7.19031Z" fill="#9F9FAB"/>
<path d="M6.44155 2.67188L9.2428 5.46938C9.6253 5.85188 10.2441 5.85188 10.6266 5.46938L11.0428 5.05313C11.2003 4.89563 11.2003 4.64063 11.0428 4.48313L7.4278 0.868125C7.2703 0.710625 7.0153 0.710625 6.8578 0.868125L6.44155 1.28438C6.05905 1.66688 6.05905 2.28938 6.44155 2.67188Z" fill="#CECED7"/>
<path d="M2.27906 5.46186L6.44906 9.63186C6.64406 9.82687 6.96281 9.82687 7.15781 9.63186L7.49906 9.29062C8.08406 8.70562 8.08406 7.76061 7.49906 7.17561L4.73531 4.41186C4.15031 3.82686 3.20531 3.82686 2.62031 4.41186L2.27906 4.75311C2.08406 4.94811 2.08406 5.26686 2.27906 5.46186Z" fill="#CECED7"/>
</g>
<defs>
<clipPath id="clip0_10243_60237">
<rect width="12" height="12" fill="white"/>
</clipPath>
</defs>
</svg>
