<svg width="375" height="44" viewBox="0 0 375 44" fill="none" xmlns="http://www.w3.org/2000/svg">
<g clip-path="url(#clip0_9242_19595)">
<path d="M34.8696 28.2637C32.3574 28.2637 30.8486 26.1323 30.8486 22.7192V22.7046C30.8486 19.2915 32.3574 17.1675 34.8696 17.1675C37.3818 17.1675 38.9052 19.2915 38.9052 22.7046V22.7192C38.9052 26.1323 37.3818 28.2637 34.8696 28.2637ZM34.8696 26.7329C36.2172 26.7329 37.0009 25.2241 37.0009 22.7192V22.7046C37.0009 20.1997 36.2172 18.7056 34.8696 18.7056C33.5219 18.7056 32.7529 20.1997 32.7529 22.7046V22.7192C32.7529 25.2241 33.5219 26.7329 34.8696 26.7329ZM42.0947 21.1519C41.4282 21.1519 40.9302 20.6392 40.9302 19.9946C40.9302 19.3428 41.4282 18.8374 42.0947 18.8374C42.7685 18.8374 43.2593 19.3428 43.2593 19.9946C43.2593 20.6392 42.7685 21.1519 42.0947 21.1519ZM42.0947 26.5864C41.4282 26.5864 40.9302 26.0811 40.9302 25.4292C40.9302 24.7773 41.4282 24.272 42.0947 24.272C42.7685 24.272 43.2593 24.7773 43.2593 25.4292C43.2593 26.0811 42.7685 26.5864 42.0947 26.5864ZM49.3052 28.2637C46.793 28.2637 45.2842 26.1323 45.2842 22.7192V22.7046C45.2842 19.2915 46.793 17.1675 49.3052 17.1675C51.8174 17.1675 53.3408 19.2915 53.3408 22.7046V22.7192C53.3408 26.1323 51.8174 28.2637 49.3052 28.2637ZM49.3052 26.7329C50.6529 26.7329 51.4366 25.2241 51.4366 22.7192V22.7046C51.4366 20.1997 50.6529 18.7056 49.3052 18.7056C47.9575 18.7056 47.1885 20.1997 47.1885 22.7046V22.7192C47.1885 25.2241 47.9575 26.7329 49.3052 26.7329ZM59.1158 28.2637C56.6036 28.2637 55.0948 26.1323 55.0948 22.7192V22.7046C55.0948 19.2915 56.6036 17.1675 59.1158 17.1675C61.628 17.1675 63.1514 19.2915 63.1514 22.7046V22.7192C63.1514 26.1323 61.628 28.2637 59.1158 28.2637ZM59.1158 26.7329C60.4634 26.7329 61.2471 25.2241 61.2471 22.7192V22.7046C61.2471 20.1997 60.4634 18.7056 59.1158 18.7056C57.7681 18.7056 56.9991 20.1997 56.9991 22.7046V22.7192C56.9991 25.2241 57.7681 26.7329 59.1158 26.7329Z" fill="black"/>
</g>
<g clip-path="url(#clip1_9242_19595)">
<path d="M340.541 28.6265C339.13 28.6265 337.935 28.4937 337.088 27.647C336.241 26.8003 336.117 25.6216 336.117 24.2021V21.7949C336.117 20.4087 336.241 19.2217 337.088 18.375C337.935 17.5283 339.13 17.3955 340.524 17.3955H353.59C355.009 17.3955 356.205 17.5283 357.051 18.375C357.898 19.2217 358.022 20.4004 358.022 21.8198V24.2021C358.022 25.6216 357.898 26.8003 357.051 27.647C356.205 28.4937 355.009 28.6265 353.59 28.6265H340.541ZM340.317 27.29H353.822C354.677 27.29 355.574 27.1738 356.072 26.6758C356.578 26.1694 356.686 25.2812 356.686 24.4263V21.5874C356.686 20.7324 356.578 19.8525 356.072 19.3462C355.574 18.8481 354.677 18.7319 353.822 18.7319H340.342C339.47 18.7319 338.565 18.8398 338.059 19.3462C337.561 19.8525 337.453 20.7407 337.453 21.6123V24.4263C337.453 25.2812 337.561 26.1694 338.059 26.6758C338.565 27.1738 339.462 27.29 340.317 27.29ZM339.877 26.3271C339.312 26.3271 338.972 26.2441 338.74 26.0117C338.507 25.7793 338.424 25.4473 338.424 24.8745V21.1641C338.424 20.583 338.507 20.2427 338.74 20.0103C338.964 19.7778 339.304 19.6948 339.902 19.6948H354.262C354.827 19.6948 355.167 19.7778 355.399 20.0103C355.624 20.2427 355.715 20.5747 355.715 21.1475V24.8745C355.715 25.4473 355.624 25.7793 355.399 26.0117C355.167 26.2441 354.835 26.3271 354.262 26.3271H339.877ZM359.151 25.1567V20.8652C359.807 20.9067 360.687 21.7451 360.687 23.0068C360.687 24.2769 359.807 25.1152 359.151 25.1567Z" fill="black"/>
<path d="M295 24.3002C295.279 24.3002 295.418 24.2996 295.534 24.3227C296.01 24.4174 296.382 24.79 296.477 25.266C296.5 25.3819 296.5 25.5214 296.5 25.8002V26.8002C296.5 27.0789 296.5 27.2185 296.477 27.3344C296.382 27.8102 296.01 28.1821 295.534 28.2768C295.418 28.2998 295.279 28.3002 295 28.3002C294.721 28.3002 294.582 28.2998 294.466 28.2768C293.99 28.1821 293.618 27.8102 293.523 27.3344C293.5 27.2185 293.5 27.0789 293.5 26.8002V25.8002C293.5 25.5214 293.5 25.3819 293.523 25.266C293.618 24.79 293.99 24.4174 294.466 24.3227C294.582 24.2996 294.721 24.3002 295 24.3002ZM299.8 22.3002C300.078 22.3002 300.218 22.2996 300.334 22.3227C300.81 22.4174 301.183 22.79 301.277 23.266C301.3 23.3819 301.3 23.5216 301.3 23.8002V26.8002C301.3 27.0789 301.3 27.2185 301.277 27.3344C301.183 27.8103 300.81 28.1821 300.334 28.2768C300.218 28.2998 300.079 28.3002 299.8 28.3002C299.521 28.3002 299.382 28.2998 299.266 28.2768C298.79 28.182 298.418 27.8102 298.323 27.3344C298.3 27.2185 298.3 27.0789 298.3 26.8002V23.8002C298.3 23.5215 298.3 23.3819 298.323 23.266C298.418 22.79 298.79 22.4174 299.266 22.3227C299.382 22.2996 299.521 22.3002 299.8 22.3002ZM304.4 20.0004C304.679 20.0004 304.819 19.9998 304.935 20.0229C305.41 20.1177 305.782 20.4903 305.877 20.9662C305.9 21.0821 305.9 21.2219 305.9 21.5004V26.8002C305.9 27.0789 305.9 27.2185 305.877 27.3344C305.782 27.8101 305.41 28.1819 304.935 28.2768C304.819 28.2998 304.679 28.3002 304.4 28.3002C304.122 28.3002 303.982 28.2998 303.866 28.2768C303.39 28.1821 303.018 27.8103 302.923 27.3344C302.9 27.2185 302.9 27.0789 302.9 26.8002V21.5004C302.9 21.2219 302.9 21.0821 302.923 20.9662C303.018 20.4902 303.39 20.1175 303.866 20.0229C303.982 19.9999 304.122 20.0004 304.4 20.0004ZM309.1 17.6C309.378 17.6 309.518 17.6004 309.634 17.6234C310.11 17.7181 310.482 18.0898 310.577 18.5658C310.6 18.6817 310.6 18.8212 310.6 19.1V26.8002C310.6 27.0789 310.6 27.2185 310.577 27.3344C310.482 27.8103 310.11 28.1821 309.634 28.2768C309.518 28.2998 309.378 28.3002 309.1 28.3002C308.821 28.3002 308.681 28.2998 308.565 28.2768C308.09 28.1819 307.718 27.8101 307.623 27.3344C307.6 27.2185 307.6 27.0789 307.6 26.8002V19.1C307.6 18.8212 307.6 18.6817 307.623 18.5658C307.718 18.09 308.09 17.7183 308.565 17.6234C308.681 17.6004 308.821 17.6 309.1 17.6Z" fill="black"/>
<path d="M316.365 22.1758L315.422 21.2188C315.306 21.0957 315.306 20.9453 315.401 20.8291C317.001 18.8467 320.036 17.3906 323.201 17.3906C326.373 17.3906 329.395 18.8467 331.001 20.8291C331.097 20.9453 331.104 21.0957 330.98 21.2188L330.037 22.1621C329.9 22.292 329.716 22.2988 329.593 22.1758C327.925 20.3916 325.696 19.4414 323.201 19.4414C320.72 19.4414 318.505 20.3848 316.823 22.1689C316.693 22.3057 316.502 22.3057 316.365 22.1758ZM319.202 25.0332L318.143 23.9736C318.026 23.8506 318.02 23.7139 318.122 23.5908C319.154 22.3262 321.068 21.376 323.201 21.376C325.334 21.376 327.248 22.3262 328.28 23.5908C328.383 23.7139 328.369 23.8643 328.26 23.9736L327.2 25.0264C327.05 25.1631 326.879 25.1699 326.756 25.0264C325.922 24.1172 324.582 23.4336 323.201 23.4404C321.834 23.4336 320.494 24.0967 319.674 25.0059C319.537 25.1562 319.353 25.1768 319.202 25.0332ZM323.201 28.752C323.051 28.752 322.921 28.6768 322.654 28.4238L320.993 26.8242C320.884 26.7217 320.856 26.5986 320.925 26.4893C321.369 25.8945 322.21 25.375 323.201 25.375C324.165 25.375 325.006 25.874 325.45 26.4482C325.546 26.5713 325.519 26.7217 325.416 26.8242L323.748 28.4238C323.481 28.6836 323.352 28.752 323.201 28.752Z" fill="black"/>
</g>
<defs>
<clipPath id="clip0_9242_19595">
<rect width="53.7135" height="18" fill="white" transform="translate(19.8939 14)"/>
</clipPath>
<clipPath id="clip1_9242_19595">
<rect width="68" height="14" fill="white" transform="translate(293 16)"/>
</clipPath>
</defs>
</svg>
