<svg width="40" height="40" viewBox="0 0 40 40" fill="none" xmlns="http://www.w3.org/2000/svg">
<rect x="21" y="20" width="14" height="14" fill="#FFC4C4"/>
<rect x="24" y="22" width="4" height="4" rx="0.5" fill="#FFE3E3"/>
<rect x="24" y="27" width="4" height="4" rx="0.5" fill="#FFE3E3"/>
<rect x="29" y="22" width="4" height="4" rx="0.5" fill="#FFE3E3"/>
<rect x="29" y="27" width="4" height="4" rx="0.5" fill="#FFE3E3"/>
<path d="M19 13C19 12.4477 19.4477 12 20 12H32.4181C32.7619 12 33.0817 12.1767 33.2647 12.4678L37.0367 18.4678C37.4554 19.1337 36.9767 20 36.1901 20H20C19.4477 20 19 19.5523 19 19V13Z" fill="#FFAAAA"/>
<path d="M22 15.3234V36H5V15.3234L13.4459 4.99978L22 15.3234Z" fill="#FFE3E3"/>
<path d="M17.5507 35H10.0764C10.0383 35 10.0001 34.9599 10.0001 34.9198V24.3634C10.0001 23.6115 10.5817 23 11.2967 23H16.3399C17.0549 23 17.6365 23.6115 17.6365 24.3634V34.9198C17.627 34.9599 17.5888 35 17.5507 35Z" fill="#FFC4C4"/>
<path d="M16.1661 29.9785C16.6526 29.9785 17.0469 29.5841 17.0469 29.0976C17.0469 28.6112 16.6526 28.2168 16.1661 28.2168C15.6796 28.2168 15.2853 28.6112 15.2853 29.0976C15.2853 29.5841 15.6796 29.9785 16.1661 29.9785Z" fill="white"/>
<path d="M13.5 3.5C13.9112 3.5 14.3047 3.6687 14.5879 3.9668L24.0879 13.9668C24.6584 14.5674 24.6338 15.5174 24.0333 16.0879C23.4326 16.6583 22.4827 16.6338 21.9122 16.0332L13.5 7.17773L5.08794 16.0332C4.51741 16.6338 3.56746 16.6583 2.96684 16.0879C2.36629 15.5174 2.34173 14.5674 2.91216 13.9668L12.4122 3.9668L12.5235 3.86133C12.7941 3.62922 13.1402 3.5 13.5 3.5Z" fill="#F97B7B"/>
<path d="M11 15.5C11 14.1193 12.1193 13 13.5 13C14.8807 13 16 14.1193 16 15.5V18.6471C16 18.842 15.842 19 15.6471 19H11.3529C11.158 19 11 18.842 11 18.6471V15.5Z" fill="white"/>
<path d="M3.96069 34.002H14.8508C14.8556 34.002 14.8605 34 14.8653 34H36.0286C36.5648 34 37 34.4574 37 35.0209V36.9791C37 37.5426 36.5648 38 36.0286 38H3.97137C3.43518 38 3 37.5426 3 36.9791V35.0209C3 34.4604 3.42934 34.0082 3.96069 34.002Z" fill="#FFAAAA"/>
</svg>
