<svg width="200" height="134" viewBox="0 0 200 134" fill="none" xmlns="http://www.w3.org/2000/svg">
<path d="M166.722 21.6555L164.496 19.001C164.032 18.4482 163.208 18.3759 162.655 18.8396L160.001 21.0658C159.448 21.5295 159.376 22.3536 159.839 22.9064L162.066 25.561C162.529 26.1138 163.353 26.1861 163.906 25.7224L166.561 23.4961C167.113 23.0325 167.186 22.2084 166.722 21.6555Z" fill="#FFAD00"/>
<path d="M132.78 50.6323L129.408 51.4297C128.706 51.5958 128.271 52.2997 128.437 53.0019L129.235 56.3734C129.401 57.0755 130.105 57.5101 130.807 57.344L134.179 56.5466C134.881 56.3805 135.315 55.6766 135.149 54.9744L134.352 51.6029C134.186 50.9007 133.482 50.4662 132.78 50.6323Z" fill="white"/>
<path d="M37.0449 65.6835L35.7325 61.5548C35.4596 60.6961 34.5422 60.2213 33.6834 60.4942L29.5548 61.8066C28.696 62.0796 28.2212 62.997 28.4942 63.8557L29.8066 67.9844C30.0795 68.8431 30.9969 69.3179 31.8556 69.045L35.9843 67.7326C36.843 67.4596 37.3179 66.5422 37.0449 65.6835Z" fill="#6376FF"/>
<path d="M174 52C175.105 52 176 51.1046 176 50C176 48.8954 175.105 48 174 48C172.895 48 172 48.8954 172 50C172 51.1046 172.895 52 174 52Z" fill="#7896FF"/>
<path d="M30.4259 51.5383L31.0075 49.7086C31.1285 49.328 30.9181 48.9215 30.5375 48.8005L28.7078 48.2189C28.3272 48.0979 27.9207 48.3083 27.7997 48.6889L27.2181 50.5187C27.0971 50.8992 27.3075 51.3057 27.6881 51.4267L29.5179 52.0083C29.8984 52.1293 30.3049 51.9189 30.4259 51.5383Z" fill="#A8BFFF"/>
<path d="M47.755 33.51C48.7243 33.51 49.51 32.7243 49.51 31.755C49.51 30.7857 48.7243 30 47.755 30C46.7857 30 46 30.7857 46 31.755C46 32.7243 46.7857 33.51 47.755 33.51Z" fill="#FFC84D"/>
<path d="M154.251 39.4111C153.864 39.4111 153.482 39.2321 153.238 38.8941C152.833 38.3351 152.958 37.5541 153.517 37.1481C156.161 35.2321 159.292 34.1431 162.572 34.0001C163.267 33.9931 163.845 34.5051 163.876 35.1941C163.906 35.8841 163.371 36.4671 162.682 36.4981C159.892 36.6201 157.231 37.5451 154.984 39.1731C154.762 39.3341 154.506 39.4111 154.252 39.4111H154.251Z" fill="#BED1FF"/>
<path d="M145.251 29.733C144.876 29.733 144.504 29.565 144.258 29.244C143.838 28.697 143.941 27.912 144.489 27.492C147.496 25.185 149.424 21.845 149.919 18.087C150.009 17.403 150.638 16.92 151.321 17.011C152.006 17.101 152.488 17.729 152.397 18.413C151.815 22.833 149.547 26.761 146.01 29.475C145.783 29.649 145.517 29.733 145.251 29.733Z" fill="#4A81EC"/>
<path d="M34.9991 19.4652L34.9998 16.8644C34.9999 16.3234 34.5614 15.8847 34.0204 15.8845L31.4196 15.8839C30.8786 15.8838 30.4399 16.3222 30.4398 16.8633L30.4391 19.464C30.439 20.0051 30.8775 20.4438 31.4185 20.4439L34.0193 20.4445C34.5603 20.4447 34.999 20.0062 34.9991 19.4652Z" fill="white"/>
<path d="M165.366 95.4766L166.771 93.2882C167.064 92.8329 166.932 92.2269 166.476 91.9345L164.288 90.5292C163.833 90.2369 163.227 90.3689 162.934 90.8242L161.529 93.0126C161.237 93.4678 161.369 94.0738 161.824 94.3662L164.012 95.7715C164.468 96.0639 165.074 95.9318 165.366 95.4766Z" fill="white"/>
<path d="M50.1163 106.835C50.201 106.909 50.2774 106.998 50.3424 107.098C50.715 107.679 50.5448 108.452 49.9636 108.825C48.1354 109.995 46.7005 111.668 45.8141 113.664C45.5338 114.296 44.7954 114.579 44.1646 114.299C43.5337 114.02 43.2491 113.281 43.5294 112.65C44.6146 110.205 46.3739 108.154 48.6157 106.719C49.0968 106.412 49.7078 106.474 50.1163 106.835Z" fill="#FFAD00"/>
<path d="M49.389 101.172C49.6701 101.42 49.8377 101.792 49.8096 102.195C49.7624 102.883 49.1655 103.404 48.4768 103.356C44.6957 103.094 41.0397 104.322 38.1811 106.811C37.6609 107.264 36.8697 107.21 36.418 106.689C35.9641 106.169 36.0185 105.379 36.5395 104.926C39.9015 101.999 44.2016 100.556 48.6493 100.863C48.9346 100.882 49.1896 100.995 49.389 101.172Z" fill="#FFDB7D"/>
</svg>
