<svg width="40" height="40" viewBox="0 0 40 40" fill="none" xmlns="http://www.w3.org/2000/svg">
<path d="M35 38H29.0387H26.8694H23.9122H18V12.46C18 11.1 18.935 10 20.091 10H32.909C34.065 10 35 11.1 35 12.46V38Z" fill="#FFCBF1"/>
<rect x="27" y="13" width="6" height="3" rx="0.5" fill="#FFE5F9"/>
<rect x="27" y="18" width="6" height="3" rx="0.5" fill="#FFE5F9"/>
<rect x="27" y="23" width="6" height="3" rx="0.5" fill="#FFE5F9"/>
<rect x="27" y="28" width="6" height="3" rx="0.5" fill="#FFE5F9"/>
<path d="M3.96069 34.002H14.8508C14.8556 34.002 14.8605 34 14.8653 34H36.0286C36.5648 34 37 34.4574 37 35.0209V36.9791C37 37.5426 36.5648 38 36.0286 38H3.97137C3.43518 38 3 37.5426 3 36.9791V35.0209C3 34.4604 3.42934 34.0082 3.96069 34.002Z" fill="#FFAAE8"/>
<path d="M5 5C5 3.89543 5.89543 3 7 3H23C24.1046 3 25 3.89543 25 5V34H5V5Z" fill="#FFE5F9"/>
<path d="M17.99 34H12V28.75C12 27.784 12.5591 27 13.2479 27H16.7421C17.4309 27 18 27.784 18 28.764V34H17.99Z" fill="#FD84DC"/>
<rect x="9" y="6" width="5" height="3" rx="0.5" fill="white"/>
<rect x="9" y="11" width="5" height="3" rx="0.5" fill="white"/>
<rect x="9" y="16" width="5" height="3" rx="0.5" fill="white"/>
<rect x="9" y="21" width="5" height="3" rx="0.5" fill="white"/>
<rect x="16" y="6" width="5" height="3" rx="0.5" fill="white"/>
<rect x="16" y="11" width="5" height="3" rx="0.5" fill="white"/>
<rect x="16" y="16" width="5" height="3" rx="0.5" fill="white"/>
<rect x="16" y="21" width="5" height="3" rx="0.5" fill="white"/>
</svg>
