<svg width="20" height="20" viewBox="0 0 20 20" fill="none" xmlns="http://www.w3.org/2000/svg">
<g clip-path="url(#clip0_11018_667)">
<path d="M7.5 9.1665C7.5 9.82955 7.76339 10.4654 8.23223 10.9343C8.70107 11.4031 9.33696 11.6665 10 11.6665C10.663 11.6665 11.2989 11.4031 11.7678 10.9343C12.2366 10.4654 12.5 9.82955 12.5 9.1665C12.5 8.50346 12.2366 7.86758 11.7678 7.39874C11.2989 6.9299 10.663 6.6665 10 6.6665C9.33696 6.6665 8.70107 6.9299 8.23223 7.39874C7.76339 7.86758 7.5 8.50346 7.5 9.1665Z" stroke="#306FFF" stroke-width="1.5" stroke-linecap="round" stroke-linejoin="round"/>
<path d="M10.661 17.7688C10.3545 17.9012 10.0153 17.9384 9.68735 17.8757C9.35942 17.813 9.05789 17.6532 8.82182 17.4172L5.28515 13.8813C4.4841 13.08 3.9005 12.0877 3.58947 10.9982C3.27844 9.90862 3.25023 8.75778 3.50752 7.65431C3.76481 6.55084 4.2991 5.53116 5.05994 4.69154C5.82079 3.85192 6.78307 3.22008 7.85594 2.85566C8.92881 2.49125 10.0769 2.4063 11.1917 2.60883C12.3065 2.81136 13.3513 3.29468 14.2274 4.01317C15.1036 4.73166 15.7821 5.6616 16.199 6.71518C16.6159 7.76876 16.7574 8.91121 16.6102 10.0347" stroke="#306FFF" stroke-width="1.5" stroke-linecap="round" stroke-linejoin="round"/>
<path d="M13.3334 15.8335H18.3334" stroke="#306FFF" stroke-width="1.5" stroke-linecap="round" stroke-linejoin="round"/>
<path d="M15.8334 13.3335V18.3335" stroke="#306FFF" stroke-width="1.5" stroke-linecap="round" stroke-linejoin="round"/>
</g>
<defs>
<clipPath id="clip0_11018_667">
<rect width="20" height="20" fill="white"/>
</clipPath>
</defs>
</svg>
