<svg width="137" height="140" viewBox="0 0 137 140" fill="none" xmlns="http://www.w3.org/2000/svg">
<path d="M100.79 1.41978C102.311 0.541285 104.186 0.541494 105.707 1.41978L118.378 8.73423C143.099 23.0069 143.115 58.6828 118.407 72.9784L117.191 73.6786C106.954 79.5752 95.9273 83.5008 84.6387 85.4618L72.6719 136.419C71.7057 140.533 65.85 140.533 64.8838 136.419L53.0059 85.8465C40.8567 84.0384 28.9668 79.9672 17.9883 73.6288L1.50005 64.1083C-0.494317 62.9567 -0.501457 60.0808 1.48735 58.9198L33.8819 40.0096C35.7288 38.9315 38.0123 38.9267 39.8643 39.9959L54.8829 48.6668C65.8204 54.9816 79.2523 55.1643 90.3575 49.1493C97.5137 44.7884 97.3904 34.356 90.1329 30.1659L72.9805 20.2635C71.9097 19.6453 71.9099 18.0998 72.9805 17.4813L100.79 1.41978Z" fill="#306FFF"/>
</svg>
