<svg width="40" height="40" viewBox="0 0 40 40" fill="none" xmlns="http://www.w3.org/2000/svg">
<rect x="25" y="18" width="10" height="17" fill="#CFCFFF"/>
<rect x="29" y="20" width="4" height="4" rx="0.5" fill="#E2E2FF"/>
<rect x="29" y="25" width="4" height="4" rx="0.5" fill="#E2E2FF"/>
<path d="M25 11C25 10.4477 25.4477 10 26 10H32.4181C32.7619 10 33.0817 10.1767 33.2647 10.4678L37.0367 16.4678C37.4554 17.1337 36.9767 18 36.1901 18H26C25.4477 18 25 17.5523 25 17V11Z" fill="#B4B3FE"/>
<rect width="10" height="17" transform="matrix(-1 0 0 1 15 18)" fill="#CFCFFF"/>
<rect width="4" height="4" rx="0.5" transform="matrix(-1 0 0 1 11 20)" fill="#E2E2FF"/>
<rect width="4" height="4" rx="0.5" transform="matrix(-1 0 0 1 11 25)" fill="#E2E2FF"/>
<path d="M15 11C15 10.4477 14.5523 10 14 10H7.58194C7.23808 10 6.91835 10.1767 6.73534 10.4678L2.96328 16.4678C2.54461 17.1337 3.02326 18 3.80988 18H14C14.5523 18 15 17.5523 15 17V11Z" fill="#B4B3FE"/>
<path d="M27 12V36H13V12L19.9555 5L27 12Z" fill="#E2E2FF"/>
<path d="M22.9326 35H17.0599C17.03 35 17 34.9733 17 34.9465V27.9089C17 27.4077 17.4569 27 18.0187 27H21.9813C22.5431 27 23 27.4077 23 27.9089V34.9465C22.9925 34.9733 22.9625 35 22.9326 35Z" fill="#C8C8FE"/>
<path d="M19.0537 2.83591C19.6429 2.35579 20.5115 2.3904 21.0606 2.93942L29.0606 10.9394C29.6463 11.5252 29.6463 12.4747 29.0606 13.0605C28.4748 13.6463 27.5252 13.6463 26.9395 13.0605L20 6.12106L13.0606 13.0605C12.4748 13.6463 11.5252 13.6463 10.9395 13.0605C10.3537 12.4747 10.3537 11.5252 10.9395 10.9394L18.9395 2.93942L19.0537 2.83591Z" fill="#999AFF"/>
<rect x="16" y="15" width="3.55556" height="3.55556" rx="0.5" fill="white"/>
<rect x="16" y="19.4443" width="3.55556" height="3.55556" rx="0.5" fill="white"/>
<rect x="20.4445" y="15" width="3.55556" height="3.55556" rx="0.5" fill="white"/>
<rect x="20.4446" y="19.4443" width="3.55556" height="3.55556" rx="0.5" fill="white"/>
<path d="M3.96069 34.002H14.8508C14.8556 34.002 14.8605 34 14.8653 34H36.0286C36.5648 34 37 34.4574 37 35.0209V36.9791C37 37.5426 36.5648 38 36.0286 38H3.97137C3.43518 38 3 37.5426 3 36.9791V35.0209C3 34.4604 3.42934 34.0082 3.96069 34.002Z" fill="#B4B3FE"/>
</svg>
